<?xml version="1.0" encoding="UTF-8" standalone="no"?>
<!DOCTYPE svg PUBLIC "-//W3C//DTD SVG 1.1//EN" "http://www.w3.org/Graphics/SVG/1.1/DTD/svg11.dtd">
<svg width="100%" height="100%" viewBox="0 0 168 151" version="1.1" xmlns="http://www.w3.org/2000/svg" xmlns:xlink="http://www.w3.org/1999/xlink" xml:space="preserve" xmlns:serif="http://www.serif.com/" style="fill-rule:evenodd;clip-rule:evenodd;stroke-linejoin:round;stroke-miterlimit:2;">
    <g transform="matrix(1,0,0,1,-313.903285,-1350.525733)">
        <g transform="matrix(1.333333,0,0,1.333333,0,0)">
            <g transform="matrix(1,0,0,1,360.7846,1098.8728)">
                <path d="M0,-59.043L0,18.564C0,19.645 -0.876,20.521 -1.957,20.521C-3.038,20.521 -3.914,19.645 -3.914,18.564L-3.914,-57.822L-53.004,-81.843L-102.093,-57.822L-102.093,-6.99C-102.093,-5.91 -102.969,-5.033 -104.05,-5.033C-105.131,-5.033 -106.007,-5.909 -106.007,-6.99L-106.007,-59.043C-106.007,-59.79 -105.582,-60.472 -104.911,-60.8L-53.864,-85.779C-53.321,-86.045 -52.686,-86.045 -52.143,-85.779L-1.097,-60.8C-0.425,-60.472 0,-59.79 0,-59.043M-89.094,-51.48L-16.907,-51.48C-15.826,-51.48 -14.949,-50.604 -14.949,-49.523L-14.949,-41.821C-14.949,-40.741 -15.826,-39.864 -16.907,-39.864L-20.384,-39.864L-20.384,-8.128C-20.384,-7.047 -21.26,-6.171 -22.341,-6.171C-23.422,-6.171 -24.298,-7.047 -24.298,-8.128L-24.298,-39.865L-81.709,-39.865L-81.709,-18.293C-81.709,-17.212 -82.586,-16.336 -83.666,-16.336C-84.747,-16.336 -85.624,-17.212 -85.624,-18.293L-85.624,-39.865L-89.094,-39.865C-90.175,-39.865 -91.051,-40.741 -91.051,-41.821L-91.051,-49.523C-91.051,-50.604 -90.175,-51.48 -89.094,-51.48M-87.137,-43.778L-18.864,-43.778L-18.864,-47.566L-87.137,-47.566L-87.137,-43.778ZM-60.985,9.752L-60.985,18.564C-60.985,19.645 -61.862,20.521 -62.942,20.521L-68.491,20.521C-68.775,24.142 -71.811,27.002 -75.505,27.002C-79.194,27.002 -82.227,24.142 -82.511,20.521L-97.086,20.521C-97.37,24.142 -100.402,27.002 -104.092,27.002C-107.786,27.002 -110.822,24.142 -111.106,20.521L-116.383,20.521C-117.464,20.521 -118.341,19.645 -118.341,18.564L-118.341,-16.076L-124.931,-24.353C-125.604,-25.198 -125.465,-26.429 -124.619,-27.102C-123.773,-27.775 -122.542,-27.635 -121.869,-26.79L-114.852,-17.978C-114.576,-17.632 -114.426,-17.202 -114.426,-16.759L-114.426,7.796L-109.922,7.796L-109.922,-1.335C-109.922,-2.416 -109.046,-3.292 -107.965,-3.292L-99.033,-3.292L-99.033,-12.416C-99.033,-13.497 -98.156,-14.373 -97.075,-14.373L-80.113,-14.373C-79.032,-14.373 -78.156,-13.497 -78.156,-12.416L-78.156,-3.292L-74.033,-3.292C-72.953,-3.292 -72.076,-2.416 -72.076,-1.335L-72.076,7.796L-62.943,7.796C-61.861,7.796 -60.985,8.672 -60.985,9.752M-75.99,0.622L-89.045,0.622L-89.045,7.796L-75.99,7.796L-75.99,0.622ZM-95.118,-3.292L-82.07,-3.292L-82.07,-10.459L-95.118,-10.459L-95.118,-3.292ZM-106.007,7.796L-92.96,7.796L-92.96,0.622L-106.007,0.622L-106.007,7.796ZM-101.028,20.521L-107.163,20.521C-106.9,21.979 -105.624,23.088 -104.092,23.088C-102.563,23.088 -101.29,21.979 -101.028,20.521M-72.434,20.521L-78.569,20.521C-78.306,21.979 -77.034,23.088 -75.505,23.088C-73.972,23.088 -72.697,21.979 -72.434,20.521M-64.9,11.709L-114.426,11.709L-114.426,16.608L-64.9,16.608L-64.9,11.709ZM-11.653,-2.438L-11.653,18.564C-11.653,19.645 -12.529,20.521 -13.61,20.521L-53.74,20.521C-54.82,20.521 -55.697,19.645 -55.697,18.564L-55.697,-0.482L-68.96,-0.482C-70.041,-0.482 -70.917,-1.358 -70.917,-2.439L-70.917,-22.276C-70.917,-23.357 -70.041,-24.233 -68.96,-24.233L-31.072,-24.233C-29.991,-24.233 -29.115,-23.357 -29.115,-22.276L-29.115,-4.396L-13.61,-4.396C-12.529,-4.395 -11.653,-3.519 -11.653,-2.438M-42.538,-4.395L-33.029,-4.395L-33.029,-20.319L-42.538,-20.319L-42.538,-4.395ZM-42.538,4.132L-39.026,4.132L-39.026,-0.482L-42.538,-0.482L-42.538,4.132ZM-58.272,-16.177L-55.177,-16.177L-55.177,-20.319L-58.272,-20.319L-58.272,-16.177ZM-67.002,-4.395L-46.452,-4.395L-46.452,-20.319L-51.262,-20.319L-51.262,-14.22C-51.262,-13.139 -52.138,-12.263 -53.219,-12.263L-60.228,-12.263C-61.309,-12.263 -62.186,-13.139 -62.186,-14.22L-62.186,-20.319L-67.002,-20.319L-67.002,-4.395ZM-29.781,-0.482L-35.111,-0.482L-35.111,6.089C-35.111,7.17 -35.987,8.046 -37.068,8.046L-44.495,8.046C-45.575,8.046 -46.452,7.17 -46.452,6.089L-46.452,-0.482L-51.782,-0.482L-51.782,16.608L-29.781,16.608L-29.781,-0.482ZM-15.567,-0.482L-25.866,-0.482L-25.866,16.607L-15.567,16.607L-15.567,-0.482ZM-59.958,-57.19C-61.039,-57.19 -61.915,-58.066 -61.915,-59.147L-61.915,-69.097C-61.915,-70.177 -61.039,-71.054 -59.958,-71.054L-46.05,-71.054C-44.969,-71.054 -44.092,-70.178 -44.092,-69.097L-44.092,-59.147C-44.092,-58.066 -44.969,-57.19 -46.05,-57.19L-59.958,-57.19ZM-58.001,-61.104L-48.007,-61.104L-48.007,-67.14L-58.001,-67.14L-58.001,-61.104Z" style="fill:rgb(14,171,198);fill-rule:nonzero;"/>
            </g>
        </g>
    </g>
</svg>
